# Blender v2.82 (sub 7) OBJ File: ''
# www.blender.org
mtllib brickwall2.mtl
o Cube.001
v -0.464645 7.000000 -0.999999
v 0.464645 7.000000 -0.999999
v 0.464645 -7.000000 -1.000001
v -0.464645 -7.000000 -1.000001
v -0.500000 -7.000000 -0.929291
v -0.500000 -7.000000 0.929288
v -0.500000 7.000000 0.929291
v -0.500000 7.000000 -0.929288
v 0.475570 -7.000000 -0.996540
v 0.485426 -7.000000 -0.986497
v 0.493248 -7.000000 -0.970853
v 0.498270 -7.000000 -0.951141
v 0.500000 -7.000000 -0.929291
v 0.500000 -7.000000 0.929288
v 0.498270 -7.000000 0.951139
v 0.493248 -7.000000 0.970851
v 0.485426 -7.000000 0.986494
v 0.475570 -7.000000 0.996538
v 0.464645 -7.000000 0.999999
v -0.464645 -7.000000 0.999999
v -0.475570 -7.000000 0.996538
v -0.485426 -7.000000 0.986494
v -0.493248 -7.000000 0.970851
v -0.498270 -7.000000 0.951139
v -0.498270 -7.000000 -0.951141
v -0.493248 -7.000000 -0.970853
v -0.485426 -7.000000 -0.986497
v -0.475570 -7.000000 -0.996540
v 0.464645 7.000000 1.000001
v -0.464645 7.000000 1.000001
v 0.500000 7.000000 -0.929288
v 0.500000 7.000000 0.929291
v -0.475570 7.000000 -0.996538
v -0.485426 7.000000 -0.986494
v -0.493248 7.000000 -0.970851
v -0.498270 7.000000 -0.951139
v 0.475570 7.000000 0.996540
v 0.485426 7.000000 0.986497
v 0.493248 7.000000 0.970853
v 0.498270 7.000000 0.951141
v -0.475570 7.000000 0.996540
v -0.485426 7.000000 0.986497
v -0.493248 7.000000 0.970853
v -0.498270 7.000000 0.951141
v 0.475570 7.000000 -0.996538
v 0.485426 7.000000 -0.986494
v 0.493248 7.000000 -0.970851
v 0.498270 7.000000 -0.951139
v 0.500000 -7.000000 0.929288
v 0.500000 7.000000 0.929291
vt 1.041100 -0.034168
vt 1.498031 -0.032734
vt 1.497811 3.409168
vt 1.040879 3.407734
vt 0.997970 3.409168
vt 0.541038 3.407734
vt 0.541258 -0.034168
vt 0.998190 -0.032733
vt 0.487240 0.250120
vt 0.489969 0.250552
vt 0.492431 0.251806
vt 0.494385 0.253760
vt 0.495640 0.256223
vt 0.496072 0.258952
vt 0.496072 0.491096
vt 0.495640 0.493825
vt 0.494385 0.496287
vt 0.492431 0.498241
vt 0.489969 0.499496
vt 0.487240 0.499928
vt 0.255096 0.499928
vt 0.252367 0.499496
vt 0.249904 0.498241
vt 0.247950 0.496287
vt 0.246696 0.493825
vt 0.246264 0.491095
vt 0.246264 0.258952
vt 0.246696 0.256223
vt 0.247951 0.253761
vt 0.249905 0.251807
vt 0.252367 0.250552
vt 0.255096 0.250120
vt 0.041417 -0.034168
vt 0.498349 -0.032733
vt 0.498129 3.409168
vt 0.041197 3.407734
vt 1.540941 -0.034168
vt 1.997873 -0.032734
vt 1.997652 3.409167
vt 1.540720 3.407734
vt 1.032297 3.408021
vt 1.032518 -0.033881
vt 1.023715 3.408308
vt 1.023936 -0.033594
vt 1.015134 3.408595
vt 1.015354 -0.033307
vt 1.006552 3.408881
vt 1.006772 -0.033021
vt 0.032615 3.408021
vt 0.032835 -0.033881
vt 0.024033 3.408308
vt 0.024254 -0.033594
vt 0.015451 3.408594
vt 0.015672 -0.033308
vt 0.006869 3.408881
vt 0.007090 -0.033020
vt -0.001713 3.409168
vt -0.001492 -0.032734
vt 0.506931 -0.033021
vt 0.506710 3.408881
vt 0.515513 -0.033308
vt 0.515292 3.408594
vt 0.524095 -0.033594
vt 0.523874 3.408308
vt 0.532677 -0.033881
vt 0.532456 3.408021
vt 1.506613 -0.033020
vt 1.506393 3.408881
vt 1.515195 -0.033307
vt 1.514975 3.408594
vt 1.523777 -0.033594
vt 1.523556 3.408307
vt 1.532359 -0.033881
vt 1.532138 3.408020
vt 0.255096 0.249912
vt 0.252367 0.249480
vt 0.249905 0.248225
vt 0.247951 0.246271
vt 0.246696 0.243809
vt 0.246264 0.241080
vt 0.246264 0.008936
vt 0.246696 0.006207
vt 0.247950 0.003745
vt 0.249904 0.001790
vt 0.252367 0.000536
vt 0.255096 0.000104
vt 0.487240 0.000104
vt 0.489969 0.000536
vt 0.492431 0.001790
vt 0.494385 0.003744
vt 0.495640 0.006207
vt 0.496072 0.008936
vt 0.496072 0.241079
vt 0.495640 0.243809
vt 0.494385 0.246271
vt 0.492431 0.248225
vt 0.489969 0.249479
vt 0.487240 0.249912
vt 0.246264 0.500135
vt 0.556518 0.500135
vt 0.556518 0.505550
vt 0.246264 0.505550
vn 0.0000 0.0000 -1.0000
vn -1.0000 0.0000 0.0000
vn 0.0000 -1.0000 0.0000
vn 0.0000 -0.0000 1.0000
vn 1.0000 0.0000 0.0000
vn -0.3020 0.0000 -0.9533
vn -0.7137 0.0000 -0.7004
vn -0.8944 0.0000 -0.4472
vn -0.9690 0.0000 -0.2469
vn -0.9969 0.0000 -0.0789
vn 0.3020 -0.0000 0.9533
vn 0.7137 -0.0000 0.7004
vn 0.8944 -0.0000 0.4472
vn 0.9690 -0.0000 0.2469
vn 0.9969 -0.0000 0.0789
vn -0.3020 -0.0000 0.9533
vn -0.7137 -0.0000 0.7004
vn -0.8944 -0.0000 0.4472
vn -0.9690 -0.0000 0.2469
vn -0.9969 -0.0000 0.0789
vn 0.3020 0.0000 -0.9533
vn 0.7137 0.0000 -0.7004
vn 0.8944 0.0000 -0.4472
vn 0.9690 0.0000 -0.2469
vn 0.9969 0.0000 -0.0789
vn 0.0000 1.0000 0.0000
usemtl Material
s 1
f 1/1/1 2/2/1 3/3/1 4/4/1
f 5/5/2 6/6/2 7/7/2 8/8/2
f 3/9/3 9/10/3 10/11/3 11/12/3 12/13/3 13/14/3 14/15/3 15/16/3 16/17/3 17/18/3 18/19/3 19/20/3 20/21/3 21/22/3 22/23/3 23/24/3 24/25/3 6/26/3 5/27/3 25/28/3 26/29/3 27/30/3 28/31/3 4/32/3
f 29/33/4 30/34/4 20/35/4 19/36/4
f 31/37/5 32/38/5 14/39/5 13/40/5
f 1/1/6 4/4/6 28/41/6 33/42/6
f 33/42/7 28/41/7 27/43/7 34/44/7
f 34/44/8 27/43/8 26/45/8 35/46/8
f 35/46/9 26/45/9 25/47/9 36/48/9
f 36/48/10 25/47/10 5/5/10 8/8/10
f 29/33/11 19/36/11 18/49/11 37/50/11
f 37/50/12 18/49/12 17/51/12 38/52/12
f 38/52/13 17/51/13 16/53/13 39/54/13
f 39/54/14 16/53/14 15/55/14 40/56/14
f 40/56/15 15/55/15 14/57/15 32/58/15
f 20/35/16 30/34/16 41/59/16 21/60/16
f 21/60/17 41/59/17 42/61/17 22/62/17
f 22/62/18 42/61/18 43/63/18 23/64/18
f 23/64/19 43/63/19 44/65/19 24/66/19
f 24/66/20 44/65/20 7/7/20 6/6/20
f 3/3/21 2/2/21 45/67/21 9/68/21
f 9/68/22 45/67/22 46/69/22 10/70/22
f 10/70/23 46/69/23 47/71/23 11/72/23
f 11/72/24 47/71/24 48/73/24 12/74/24
f 12/74/25 48/73/25 31/37/25 13/40/25
f 1/75/26 33/76/26 34/77/26 35/78/26 36/79/26 8/80/26 7/81/26 44/82/26 43/83/26 42/84/26 41/85/26 30/86/26 29/87/26 37/88/26 38/89/26 39/90/26 40/91/26 32/92/26 31/93/26 48/94/26 47/95/26 46/96/26 45/97/26 2/98/26
f 32/99/4 14/100/4 49/101/4 50/102/4
